<svg width="64" height="64" viewBox="0 0 64 64" fill="none" xmlns="http://www.w3.org/2000/svg">
<rect width="64" height="64" rx="32" fill="#4A433E"/>
<path d="M28.6156 31.1C28.6156 28.7 28.3623 26.78 27.8556 25.34C27.349 23.9 26.6823 22.82 25.8556 22.1C25.029 21.38 24.1223 20.9 23.1356 20.66C22.1623 20.42 21.2023 20.3 20.2556 20.3H17.0156V42.22H20.2956C21.2823 42.22 22.2623 42.0667 23.2356 41.76C24.2223 41.44 25.1223 40.88 25.9356 40.08C26.749 39.2667 27.3956 38.14 27.8756 36.7C28.369 35.2467 28.6156 33.38 28.6156 31.1ZM32.3156 31.1C32.3156 33.3933 32.069 35.3533 31.5756 36.98C31.0956 38.5933 30.4356 39.9267 29.5956 40.98C28.7556 42.0333 27.7956 42.8533 26.7156 43.44C25.649 44.0133 24.5223 44.42 23.3356 44.66C22.1623 44.8867 21.009 45 19.8756 45H13.5556V17.46H19.4356C21.049 17.46 22.6156 17.64 24.1356 18C25.669 18.36 27.049 19.0267 28.2756 20C29.5156 20.96 30.4956 22.3333 31.2156 24.12C31.949 25.9067 32.3156 28.2333 32.3156 31.1ZM48.36 25.96C48.36 24.5333 48.08 23.4067 47.52 22.58C46.96 21.74 46.1933 21.14 45.22 20.78C44.2467 20.4067 43.1333 20.22 41.88 20.22H37.9V31.98H41.74C43.0333 31.98 44.1733 31.8067 45.16 31.46C46.1467 31.1 46.9267 30.4867 47.5 29.62C48.0733 28.74 48.36 27.52 48.36 25.96ZM52.08 25.92C52.08 28.0667 51.62 29.7867 50.7 31.08C49.7933 32.3733 48.54 33.3133 46.94 33.9C45.34 34.4867 43.5 34.78 41.42 34.78H37.9V45H34.42V17.46H41.46C44.74 17.46 47.3267 18.1533 49.22 19.54C51.1267 20.9133 52.08 23.04 52.08 25.92Z" fill="#F4F1E9"/>
</svg>
