<svg viewBox="0 0 128 128" fill="#4A433E" xmlns="http://www.w3.org/2000/svg">
  <path d="M18.39 96.8521L13.79 94.1951L65.04 5.43408L69.637 8.09008L18.39 96.8521Z" />
  <path d="M12.7341 87.105H115.23V92.415H12.7341V87.105Z" />
  <path
    d="M66.0311 119.688L14.7661 90.09L17.4221 85.488L68.6881 115.09L66.0311 119.688ZM110.566 42.543L59.3011 12.941L61.9571 8.34399L113.223 37.941L110.566 42.543Z" />
  <path d="M17.4341 42.523L14.7771 37.922L66.0471 8.32397L68.7031 12.922L17.4341 42.523Z" />
  <path
    d="M109.621 96.8521L58.375 8.09008L62.973 5.43408L114.223 94.1951L109.621 96.8521ZM16.8 34.3981H22.1131V93.6021H16.8011L16.8 34.3981Z" />
  <path d="M105.887 34.3979H111.199V93.6019H105.887V34.3979Z" />
  <path d="M65.1291 117.441L62.8091 113.421L107.395 87.676L109.715 91.696L65.1291 117.441Z" />
  <path
    d="M118.238 95.328C115.168 100.672 108.32 102.496 102.977 99.426C97.6331 96.352 95.8091 89.504 98.8791 84.16C101.953 78.816 108.801 76.992 114.145 80.063C119.52 83.168 121.344 89.984 118.238 95.328ZM29.0901 43.84C26.0161 49.184 19.1681 51.008 13.8241 47.937C8.4801 44.863 6.6561 38.016 9.7271 32.672C12.8011 27.328 19.6481 25.504 24.9921 28.574C30.3361 31.68 32.1601 38.496 29.0901 43.84ZM9.7621 95.328C6.6871 89.984 8.5121 83.168 13.8551 80.062C19.1991 76.992 26.0151 78.816 29.1211 84.16C32.1911 89.504 30.3671 96.32 25.0231 99.426C19.6481 102.496 12.8321 100.672 9.7621 95.328ZM98.9101 43.84C95.8401 38.496 97.6641 31.68 103.008 28.574C108.352 25.504 115.168 27.328 118.273 32.672C121.343 38.016 119.52 44.832 114.176 47.938C108.832 51.008 101.984 49.184 98.9101 43.84ZM64.0001 126.656C62.5331 126.657 61.0803 126.369 59.7247 125.809C58.3692 125.248 57.1375 124.425 56.1002 123.388C55.0629 122.351 54.2403 121.119 53.6795 119.763C53.1188 118.408 52.8308 116.955 52.8321 115.488C52.8308 114.021 53.1188 112.568 53.6795 111.213C54.2403 109.857 55.0629 108.625 56.1002 107.588C57.1375 106.551 58.3692 105.728 59.7247 105.167C61.0803 104.607 62.5331 104.319 64.0001 104.32C65.4671 104.319 66.9199 104.607 68.2755 105.167C69.631 105.728 70.8627 106.551 71.9 107.588C72.9373 108.625 73.7599 109.857 74.3207 111.213C74.8814 112.568 75.1694 114.021 75.1681 115.488C75.1681 121.633 70.1761 126.656 64.0001 126.656ZM64.0001 23.68C62.5331 23.6813 61.0803 23.3933 59.7247 22.8326C58.3692 22.2718 57.1375 21.4492 56.1002 20.4119C55.0629 19.3746 54.2403 18.1429 53.6795 16.7874C53.1188 15.4318 52.8308 13.979 52.8321 12.512C52.8308 11.045 53.1188 9.59219 53.6795 8.23663C54.2403 6.88108 55.0629 5.6494 56.1002 4.6121C57.1375 3.57479 58.3692 2.75221 59.7247 2.19143C61.0803 1.63065 62.5331 1.34268 64.0001 1.344C65.4671 1.34268 66.9199 1.63065 68.2755 2.19143C69.631 2.75221 70.8627 3.57479 71.9 4.6121C72.9373 5.6494 73.7599 6.88108 74.3207 8.23663C74.8814 9.59219 75.1694 11.045 75.1681 12.512C75.1694 13.979 74.8814 15.4318 74.3207 16.7874C73.7599 18.1429 72.9373 19.3746 71.9 20.4119C70.8627 21.4492 69.631 22.2718 68.2755 22.8326C66.9199 23.3933 65.4671 23.6813 64.0001 23.68Z" />
</svg>