<svg viewBox="0 0 128 128" fill="#4A433E" xmlns="http://www.w3.org/2000/svg">
  <path
    d="M19.5691 27L27.6561 116.919L63.9451 126.601L100.335 117.102L108.431 27H19.5691ZM91.6101 47.471L91.1031 53.305L90.8801 56H48.3111L49.3281 68H89.8681L89.5971 70.231L86.9821 99.14L86.7901 100.83L64.0001 106.964V106.959L63.9731 106.971L41.1961 101.055L39.6501 84H50.8181L51.6091 92.46L63.9941 95.599L64.0001 95.365V95.377L76.4121 92.728L77.7081 79H39.1531L36.4191 48.164L36.1521 45H91.8761L91.6101 47.471ZM27.9561 1.62695H33.5781V7.18295H38.7221V1.62695H44.3451V18.449H38.7221V12.816H33.5791V18.449H27.9561V1.62695ZM51.7381 7.20595H46.7881V1.62695H62.3131V7.20595H57.3611V18.449H51.7381V7.20595ZM64.7771 1.62695H70.6391L74.2461 7.53795L77.8491 1.62695H83.7141V18.449H78.1131V10.111L74.2461 16.092H74.1481L70.2781 10.111V18.449H64.7761L64.7771 1.62695ZM86.5131 1.62695H92.1371V12.889H100.044V18.45H86.5131V1.62695Z" />
</svg>