<svg viewBox="0 0 128 128" fill="#4A433E" xmlns="http://www.w3.org/2000/svg">
  <path
    d="M80.522 44.1859C78.689 43.5929 77.742 43.7929 75.82 43.5769C72.848 43.2439 71.664 42.0489 71.162 38.9739C70.881 37.2569 71.212 34.7439 70.495 33.1879C69.123 30.2209 65.911 28.8899 62.685 29.6499C59.961 30.2919 57.695 33.0919 57.569 35.9669C57.426 39.2479 59.244 42.0489 62.365 43.0149C63.848 43.4749 65.424 43.7069 66.973 43.8239C69.813 44.0369 70.032 45.6609 70.8 46.9979C71.284 47.8409 71.754 48.6709 71.754 51.1839C71.754 53.6969 71.281 54.5279 70.8 55.3709C70.032 56.7039 69.084 57.5779 66.243 57.7939C64.695 57.9119 63.116 58.1439 61.636 58.6039C58.514 59.5729 56.696 62.3699 56.84 65.6519C56.965 68.5259 59.232 71.3259 61.956 71.9679C65.182 72.7309 68.393 71.3979 69.766 68.4299C70.486 66.8739 70.881 65.1109 71.162 63.3949C71.667 60.3199 72.851 59.1249 75.82 58.7909C77.743 58.5749 79.732 58.7909 81.534 57.7389C83.437 56.3079 85.138 54.1599 85.138 51.1839C85.138 48.2079 83.305 45.0879 80.522 44.1859Z" />
  <path
    d="M50.03 58.1589C46.283 58.1589 43.228 55.0089 43.228 51.1489C43.228 47.2879 46.283 44.1389 50.03 44.1389C53.777 44.1389 56.832 47.2879 56.832 51.1489C56.832 55.0069 53.773 58.1589 50.03 58.1589ZM37.498 72.4049C33.758 72.3959 30.711 69.2349 30.72 65.3699C30.729 61.5129 33.797 58.3729 37.546 58.3849C41.289 58.3949 44.336 61.5559 44.324 65.4199C44.315 69.2749 41.247 72.4149 37.498 72.4049ZM88.042 72.4049C84.29 72.4269 81.21 69.2989 81.189 65.4479C81.168 61.5809 84.203 58.4069 87.939 58.3849C91.692 58.3639 94.772 61.4909 94.793 65.3429C94.813 69.2059 91.779 72.3829 88.042 72.4049ZM12.958 97.0119C12.482 96.4989 12.414 95.8749 12.21 93.7779C12.05 92.1489 11.188 91.3239 9.713 91.0339C11.461 90.8109 12.754 89.4719 12.754 87.4199C12.754 84.6759 10.916 82.9579 7.217 82.9579H0V97.0119H3.79V92.3499H6.354C7.648 92.3499 8.352 92.7069 8.465 94.3129C8.579 95.7629 8.76 96.6329 9.055 97.0129H12.959L12.958 97.0119ZM3.79 89.4279V85.9919H6.536C8.17 85.9919 8.987 86.5939 8.987 87.7319C8.987 89.0259 8.17 89.4279 6.536 89.4279H3.79ZM21.375 93.4649C21.035 94.2459 20.399 94.5809 19.4 94.5809C18.288 94.5809 17.38 94.0009 17.29 92.7739H24.393V91.7699C24.393 89.0699 22.6 86.7949 19.219 86.7949C16.064 86.7949 13.704 89.0479 13.704 92.1939C13.704 95.3609 16.019 97.2799 19.264 97.2799C21.942 97.2799 23.804 96.0079 24.325 93.7329L21.375 93.4649ZM17.335 91.0339C17.471 90.0969 17.993 89.3829 19.173 89.3829C20.263 89.3829 20.853 90.1409 20.898 91.0329L17.335 91.0339ZM31.739 92.8629C31.739 94.1569 30.899 94.9149 29.855 94.9149C29.243 94.9149 28.835 94.5809 28.835 94.0679C28.835 93.4209 29.356 93.1529 30.241 92.9749L31.739 92.7069V92.8629ZM35.348 90.6989C35.348 87.9329 33.373 86.7949 30.695 86.7949C27.655 86.7949 25.997 88.3119 25.68 90.4979L29.084 90.7219C29.243 89.9849 29.651 89.4719 30.468 89.4719C31.353 89.4719 31.739 89.9629 31.739 90.7879V90.9449L28.902 91.4129C26.702 91.7929 25.294 92.6179 25.294 94.5359C25.294 96.2319 26.588 97.2359 28.562 97.2359C30.173 97.2359 31.331 96.6329 31.921 95.4729C32.261 96.6109 33.237 97.2349 34.485 97.2349C35.529 97.2349 36.255 96.9449 36.777 96.5889V94.6689C36.5177 94.7746 36.24 94.8279 35.96 94.8259C35.574 94.8259 35.348 94.6029 35.348 94.0899V90.6989ZM37.196 92.0379C37.196 95.2049 39.534 97.2799 42.734 97.2799C45.774 97.2799 47.477 95.3609 47.727 92.9519L44.708 92.7289C44.458 93.9559 43.846 94.5589 42.779 94.5589C41.667 94.5589 40.895 93.8219 40.895 92.0379C40.895 90.2539 41.667 89.5169 42.779 89.5169C43.846 89.5169 44.459 90.0969 44.709 91.3239L47.727 91.1229C47.477 88.7359 45.775 86.7949 42.734 86.7949C39.534 86.7949 37.196 88.8919 37.196 92.0379ZM49.496 94.2459C49.496 96.5889 51.106 97.2799 52.809 97.2799C54.193 97.2799 55.079 96.9449 55.85 96.3879V94.0449C55.237 94.2909 54.738 94.3799 54.284 94.3799C53.535 94.3799 53.127 94.0449 53.127 93.1979V89.5599H55.759V87.0619H53.127V84.3179H50.812L50.472 85.6119C50.222 86.5269 49.904 87.0619 48.882 87.2179L48.134 87.3299V89.5599H49.495V94.2449L49.496 94.2459ZM74.393 97.0119C73.917 96.4989 73.848 95.8749 73.644 93.7779C73.485 92.1489 72.623 91.3239 71.148 91.0339C72.895 90.8109 74.188 89.4719 74.188 87.4199C74.188 84.6759 72.351 82.9579 68.651 82.9579H61.435V97.0119H65.225V92.3499H67.789C69.083 92.3499 69.786 92.7069 69.899 94.3129C70.013 95.7629 70.195 96.6329 70.489 97.0129L74.393 97.0119ZM65.225 89.4279V85.9919H67.971C69.605 85.9919 70.421 86.5939 70.421 87.7319C70.421 89.0259 69.605 89.4279 67.971 89.4279H65.225ZM78.838 92.0379C78.838 90.5429 79.383 89.5169 80.676 89.5169C81.947 89.5169 82.514 90.5429 82.514 92.0369C82.514 93.5309 81.947 94.5579 80.676 94.5579C79.383 94.5579 78.838 93.5319 78.838 92.0379ZM86.214 92.0379C86.214 88.9589 83.967 86.7949 80.676 86.7949C77.363 86.7949 75.139 88.9589 75.139 92.0379C75.139 95.1379 77.363 97.2799 80.676 97.2799C83.966 97.2799 86.214 95.1379 86.214 92.0379ZM94.344 91.9479C94.344 93.4649 93.891 94.4469 92.734 94.4469C91.621 94.4469 91.234 93.7109 91.234 92.3719V87.0629H87.56V93.3319C87.56 95.4059 88.4 97.2799 91.168 97.2799C92.688 97.2799 93.8 96.6329 94.345 95.5179V97.0119H98.021V87.0629H94.345L94.344 91.9479ZM100.381 94.2459C100.381 96.5889 101.992 97.2799 103.694 97.2799C105.078 97.2799 105.964 96.9449 106.735 96.3879V94.0449C106.122 94.2909 105.623 94.3799 105.169 94.3799C104.421 94.3799 104.011 94.0449 104.011 93.1979V89.5599H106.644V87.0619H104.011V84.3179H101.697L101.357 85.6119C101.107 86.5269 100.789 87.0619 99.767 87.2179L99.019 87.3299V89.5599H100.381V94.2459ZM115.277 93.4659C114.937 94.2459 114.302 94.5809 113.303 94.5809C112.191 94.5809 111.284 94.0009 111.192 92.7739H118.296V91.7699C118.296 89.0699 116.503 86.7949 113.121 86.7949C109.967 86.7949 107.606 89.0479 107.606 92.1939C107.606 95.3609 109.921 97.2799 113.167 97.2799C115.845 97.2799 117.706 96.0079 118.228 93.7329L115.277 93.4649V93.4659ZM111.238 91.0339C111.374 90.0969 111.896 89.3829 113.076 89.3829C114.166 89.3829 114.756 90.1409 114.8 91.0329L111.238 91.0339ZM127.638 87.1739C127.388 86.9739 126.844 86.7949 126.231 86.7949C124.892 86.7949 123.826 87.7099 123.462 88.8249V87.0629H119.786V97.0129H123.462V92.4619C123.462 90.7879 124.302 90.1639 125.663 90.1639C126.367 90.1639 126.912 90.2979 127.412 90.5879L127.638 87.1739Z" />
</svg>