<svg viewBox="0 0 128 128" fill="#4A433E" xmlns="http://www.w3.org/2000/svg">
  <path
    d="M23.636 17.022L2.97597 29.822V34.356L23.636 47.156L25.202 44.626L4.96197 32.088L25.202 19.552L23.636 17.022ZM105.567 17.022L126.227 29.822V34.356L105.567 47.156L104.002 44.626L124.242 32.088L104.002 19.552L105.567 17.022ZM5.61097 104.743C8.22497 104.743 9.63097 103.337 9.63097 101.553C9.63097 99.696 8.15297 99.011 6.81897 98.506C5.73797 98.11 4.81897 97.839 4.81897 97.1C4.81897 96.524 5.25097 96.127 6.16997 96.127C6.90997 96.127 7.61197 96.487 8.33297 96.992L9.52297 95.388C8.69297 94.739 7.55797 94.144 6.09797 94.144C3.79097 94.144 2.33097 95.424 2.33097 97.226C2.33097 98.921 3.75497 99.696 5.03497 100.182C6.09797 100.597 7.14297 100.94 7.14297 101.697C7.14297 102.327 6.69297 102.76 5.68297 102.76C4.72797 102.76 3.88097 102.345 2.97997 101.66L1.77197 103.337C2.78197 104.166 4.25897 104.743 5.61097 104.743ZM14.93 104.743C15.813 104.743 16.516 104.526 17.075 104.364L16.625 102.436C16.354 102.544 15.957 102.652 15.633 102.652C14.732 102.652 14.245 102.112 14.245 100.958V96.488H16.751V94.397H14.245V91.675H12.065L11.758 94.397L10.19 94.523V96.487H11.614V100.976C11.614 103.211 12.533 104.743 14.93 104.743ZM19.707 108.528C21.96 108.528 23.041 107.176 23.924 104.797L27.511 94.397H24.97L23.582 99.083C23.33 100.02 23.077 100.993 22.861 101.931H22.771C22.482 100.958 22.23 99.984 21.924 99.083L20.319 94.397H17.652L21.582 104.292L21.401 104.905C21.112 105.788 20.536 106.437 19.508 106.437C19.274 106.437 18.986 106.365 18.805 106.311L18.319 108.348C18.715 108.456 19.112 108.528 19.707 108.528ZM31.675 104.743C32.288 104.743 32.72 104.635 33.027 104.508L32.702 102.544C32.522 102.58 32.45 102.58 32.342 102.58C32.089 102.58 31.819 102.382 31.819 101.769V90.107H29.169V101.661C29.169 103.535 29.819 104.743 31.675 104.743ZM38.922 94.143C36.525 94.143 34.217 96.179 34.217 99.441C34.217 102.776 36.417 104.742 39.247 104.742C40.49 104.742 41.768 104.31 42.76 103.625L41.86 102.004C41.12 102.454 40.417 102.688 39.605 102.688C38.091 102.688 37.009 101.839 36.793 100.199H43.012C43.084 99.947 43.139 99.461 43.139 98.975C43.139 96.163 41.698 94.143 38.922 94.143ZM38.955 96.199C40.271 96.199 40.867 97.064 40.867 98.416H36.74C36.957 96.956 37.892 96.199 38.955 96.199ZM51.447 90.105V93.658L51.537 95.244C50.817 94.577 50.114 94.143 48.979 94.143C46.816 94.143 44.744 96.161 44.744 99.441C44.744 102.758 46.346 104.742 48.869 104.742C49.915 104.742 50.925 104.184 51.664 103.445H51.738L51.936 104.49H54.098V90.105H51.448H51.447ZM49.557 96.325C50.206 96.325 50.834 96.523 51.447 97.082V101.518C50.87 102.275 50.26 102.561 49.557 102.561C48.223 102.561 47.465 101.517 47.465 99.408C47.465 97.408 48.421 96.325 49.557 96.325ZM6.69297 124.377C7.80997 124.377 9.03597 123.998 9.99097 123.151L8.94597 121.403C8.38697 121.871 7.71997 122.213 6.98097 122.213C5.52097 122.213 4.47597 120.988 4.47597 119.077C4.47597 117.185 5.52097 115.941 7.07097 115.941C7.63097 115.941 8.09897 116.175 8.60297 116.59L9.86497 114.914C9.12597 114.247 8.17097 113.778 6.92697 113.778C4.18697 113.778 1.77197 115.725 1.77197 119.078C1.77197 122.43 3.91797 124.377 6.69297 124.377ZM15.578 113.78C13.037 113.78 10.73 115.726 10.73 119.078C10.73 122.431 13.037 124.377 15.578 124.377C18.102 124.377 20.428 122.431 20.428 119.078C20.428 115.726 18.102 113.78 15.578 113.78ZM15.578 115.941C16.948 115.941 17.725 117.186 17.725 119.078C17.725 120.988 16.948 122.213 15.578 122.213C14.19 122.213 13.434 120.989 13.434 119.078C13.434 117.186 14.19 115.941 15.578 115.941ZM22.645 124.124H25.295V117.184C25.997 116.41 26.646 116.049 27.223 116.049C28.196 116.049 28.647 116.59 28.647 118.159V124.124H31.278V117.184C31.999 116.41 32.648 116.049 33.225 116.049C34.18 116.049 34.631 116.59 34.631 118.159V124.124H37.262V117.834C37.262 115.292 36.289 113.778 34.144 113.778C32.846 113.778 31.855 114.571 30.918 115.545C30.449 114.427 29.602 113.778 28.16 113.778C26.844 113.778 25.907 114.499 25.06 115.382H25.006L24.808 114.031H22.645V124.124ZM45.408 113.78C44.308 113.78 43.283 114.355 42.436 115.076H42.383L42.182 114.029H40.02V128H42.67V124.916L42.58 123.277C43.337 123.98 44.203 124.377 45.086 124.377C47.303 124.377 49.375 122.375 49.375 118.914C49.375 115.814 47.878 113.78 45.408 113.78ZM44.654 115.96C46.042 115.96 46.652 117.023 46.652 118.951C46.652 121.151 45.697 122.197 44.508 122.197C43.949 122.197 43.318 121.998 42.67 121.439V116.986C43.355 116.301 43.97 115.96 44.654 115.96ZM55.846 113.78C53.304 113.78 50.998 115.726 50.998 119.078C50.998 122.431 53.304 124.377 55.846 124.377C58.369 124.377 60.693 122.431 60.693 119.078C60.693 115.726 58.369 113.78 55.846 113.78ZM55.846 115.941C57.216 115.941 57.99 117.186 57.99 119.078C57.99 120.988 57.216 122.213 55.846 122.213C54.458 122.213 53.701 120.989 53.701 119.078C53.701 117.186 54.458 115.941 55.846 115.941ZM62.911 124.124H65.561V117.184C66.3 116.446 66.841 116.049 67.651 116.049C68.643 116.049 69.076 116.59 69.076 118.159V124.124H71.726V117.834C71.726 115.292 70.788 113.778 68.607 113.778C67.237 113.778 66.21 114.499 65.327 115.364H65.273L65.074 114.031H62.911V124.124ZM78.426 113.78C76.069 113.842 73.834 115.867 73.834 119.078C73.834 122.413 76.034 124.377 78.864 124.377C80.107 124.377 81.388 123.943 82.379 123.257L81.479 121.637C80.739 122.087 80.034 122.32 79.223 122.32C77.709 122.32 76.628 121.474 76.413 119.834H82.629C82.701 119.582 82.756 119.094 82.756 118.607C82.756 115.796 81.315 113.779 78.539 113.779L78.426 113.78ZM78.574 115.834C79.89 115.834 80.484 116.699 80.484 118.051H76.357C76.574 116.591 77.511 115.834 78.574 115.834ZM84.937 124.124H87.587V117.184C88.326 116.446 88.867 116.049 89.677 116.049C90.669 116.049 91.102 116.59 91.102 118.159V124.124H93.752V117.834C93.752 115.292 92.814 113.778 90.633 113.778C89.263 113.778 88.236 114.499 87.353 115.364H87.299L87.1 114.031H84.937V124.124ZM100.186 124.377C101.069 124.377 101.772 124.16 102.331 123.998L101.881 122.069C101.61 122.178 101.213 122.286 100.889 122.286C99.988 122.286 99.501 121.745 99.501 120.591V116.121H102.007V114.031H99.5V111.309H97.32L97.013 114.031L95.445 114.157V116.121H96.869V120.609C96.869 122.844 97.789 124.377 100.186 124.377ZM106.747 124.377C109.361 124.377 110.767 122.971 110.767 121.187C110.767 119.33 109.289 118.645 107.955 118.14C106.873 117.744 105.954 117.473 105.954 116.734C105.954 116.157 106.387 115.761 107.306 115.761C108.045 115.761 108.748 116.121 109.469 116.626L110.659 115.022C109.829 114.373 108.694 113.778 107.234 113.778C104.927 113.778 103.467 115.058 103.467 116.86C103.467 118.555 104.891 119.33 106.17 119.816C107.234 120.231 108.28 120.573 108.28 121.33C108.28 121.961 107.829 122.394 106.82 122.394C105.864 122.394 105.017 121.979 104.116 121.294L102.908 122.971C103.918 123.8 105.394 124.377 106.747 124.377ZM95.012 0V10.163C91.626 11.513 83.058 8.137 84.056 4.952L85.606 0H95.012ZM87.436 10.15L84.199 24.02C84.815 24.778 85.902 25.035 86.836 24.66L90.902 11.277C89.7279 11.032 88.5834 10.6623 87.488 10.174L87.436 10.15ZM83.46 24.693C80.684 27.592 82.524 31.809 78.411 34.191C83.472 35.238 86.836 29.191 86.974 25.671C85.718 26.072 84.32 25.713 83.46 24.693ZM79.718 31.582C76.038 33.712 70.907 38.234 70.446 39.092C69.762 40.365 71.513 45.24 74.288 43.994C77.198 42.619 82.098 38.587 83.268 34.134C81.842 35.073 80.117 35.564 78.208 35.17L75.642 34.64L77.909 33.326C78.807 32.806 79.349 32.234 79.718 31.582ZM81.614 39.285C81.1512 39.8573 80.6585 40.4047 80.138 40.925C78.321 42.744 76.316 44.142 74.716 44.898L74.706 44.902L74.698 44.906C74.261 45.1033 73.7844 45.1969 73.3053 45.1796C72.8261 45.1622 72.3575 45.0344 71.936 44.806C71.165 44.378 70.614 43.705 70.202 42.984C69.79 42.263 69.517 41.485 69.384 40.748L69.372 40.68L53.092 53.906H72.322C77.139 49.248 83.107 43.763 81.614 39.285ZM65.556 28.684C67.773 26.254 77.572 17.724 79.382 19.562C81.028 21.234 80.125 24.919 76.201 29.249C73.093 32.677 69.177 34.985 67.141 33.372C65.451 32.035 64.263 30.102 65.556 28.684ZM77.598 29.168C77.388 29.417 77.171 29.668 76.941 29.92C75.322 31.706 73.501 33.211 71.713 34.098C70.819 34.541 69.927 34.834 69.039 34.888C68.152 34.943 67.244 34.728 66.521 34.156C65.582 33.413 64.753 32.511 64.307 31.446C64.147 31.0629 64.0556 30.6547 64.037 30.24L40.58 49.648V53.906H51.508L69.303 39.45C69.337 39.174 69.416 38.9 69.566 38.62C69.72 38.333 69.873 38.171 70.088 37.937C70.302 37.702 70.568 37.435 70.881 37.136C71.506 36.536 72.319 35.812 73.234 35.048C74.61 33.898 76.208 32.662 77.736 31.644C77.8253 30.817 77.7787 29.981 77.598 29.169V29.168ZM54.56 25.793C57.323 22.434 61.04 19.419 65.407 16.78C68.3 15.032 70.626 18.62 68.126 22.217C65.536 25.629 62.011 28.565 59.138 30.579C57.209 31.931 53.302 27.323 54.56 25.793ZM66.625 25.51C64.379 27.876 61.869 29.887 59.713 31.398C58.883 31.981 57.844 31.882 57.037 31.535C56.23 31.188 55.518 30.609 54.912 29.937C54.306 29.267 53.809 28.506 53.529 27.707C53.3983 27.3431 53.3274 26.9605 53.319 26.574L40.58 36.85V48.35L64.361 28.674C64.479 28.44 64.628 28.216 64.816 28.01C65.4163 27.3695 66.0418 26.753 66.691 26.162C66.6833 25.9435 66.6612 25.7257 66.625 25.51Z" />
</svg>